<?xml version="1.0" encoding="UTF-8"?>
<svg xmlns="http://www.w3.org/2000/svg" xmlns:xlink="http://www.w3.org/1999/xlink" version="1.1" viewBox="0 0 317.4 197.1">
  <!-- Generator: Adobe Illustrator 29.6.1, SVG Export Plug-In . SVG Version: 2.1.1 Build 9)  -->
  <defs>
    <style>
      .st0 {
        filter: url(#drop-shadow-1);
      }

      .st1 {
        fill: url(#_ÕÓ_È_Ó·_ÁÂ_ËÂÌÚ_2);
      }

      .st1, .st2, .st3, .st4, .st5, .st6, .st7, .st8, .st9 {
        mix-blend-mode: multiply;
      }

      .st1, .st3 {
        opacity: 0;
      }

      .st10 {
        fill: url(#linear-gradient9);
      }

      .st11 {
        fill: url(#linear-gradient3);
      }

      .st12 {
        fill: url(#linear-gradient6);
      }

      .st13 {
        fill: url(#linear-gradient8);
      }

      .st14 {
        fill: url(#linear-gradient7);
      }

      .st15 {
        fill: url(#linear-gradient5);
      }

      .st16 {
        fill: url(#linear-gradient4);
      }

      .st17 {
        fill: #b61617;
      }

      .st18 {
        fill: #960006;
      }

      .st19 {
        fill: url(#uuid-68dffe0a-5afa-4fd8-8975-af35d16ab122);
      }

      .st2, .st7 {
        opacity: 0;
      }

      .st20 {
        fill: url(#linear-gradient31);
      }

      .st21 {
        fill: url(#linear-gradient30);
      }

      .st22 {
        fill: url(#linear-gradient28);
      }

      .st23 {
        fill: url(#linear-gradient29);
      }

      .st24 {
        fill: url(#linear-gradient18);
      }

      .st25 {
        fill: url(#linear-gradient13);
      }

      .st26 {
        fill: url(#linear-gradient12);
      }

      .st27 {
        fill: url(#linear-gradient15);
      }

      .st28 {
        fill: url(#linear-gradient16);
      }

      .st29 {
        fill: url(#linear-gradient11);
      }

      .st30 {
        fill: url(#linear-gradient10);
      }

      .st31 {
        fill: url(#linear-gradient17);
      }

      .st32 {
        fill: url(#linear-gradient14);
      }

      .st33 {
        fill: url(#linear-gradient19);
      }

      .st34 {
        fill: url(#linear-gradient23);
      }

      .st35 {
        fill: url(#linear-gradient22);
      }

      .st36 {
        fill: url(#linear-gradient24);
      }

      .st37 {
        fill: url(#linear-gradient25);
      }

      .st38 {
        fill: url(#linear-gradient21);
      }

      .st39 {
        fill: url(#linear-gradient20);
      }

      .st40 {
        fill: url(#linear-gradient26);
      }

      .st4 {
        opacity: .4;
      }

      .st41 {
        fill: #141c1e;
      }

      .st42 {
        fill: #0a1316;
      }

      .st43 {
        fill: #232c2f;
      }

      .st44 {
        opacity: .2;
      }

      .st44, .st45, .st46 {
        fill: #fff;
      }

      .st45 {
        opacity: .8;
      }

      .st47 {
        fill: #303e42;
      }

      .st48 {
        fill: #b01120;
      }

      .st49 {
        isolation: isolate;
      }

      .st50 {
        fill: #f7a83b;
      }

      .st5 {
        fill: url(#linear-gradient2);
      }

      .st5, .st6 {
        opacity: .1;
      }

      .st6 {
        fill: url(#linear-gradient1);
      }

      .st51 {
        fill: url(#_ÕÓ_È_Ó·_ÁÂ_ËÂÌÚ_23);
      }

      .st51, .st52, .st53, .st54, .st55, .st56 {
        mix-blend-mode: screen;
      }

      .st51, .st52, .st55 {
        opacity: .5;
      }

      .st52 {
        fill: url(#_ÕÓ_È_Ó·_ÁÂ_ËÂÌÚ_24);
      }

      .st57 {
        fill: #515151;
      }

      .st58 {
        fill: #ca2a3a;
      }

      .st59 {
        fill: #222b2e;
      }

      .st60 {
        fill: #dd8e21;
      }

      .st61 {
        fill: #3b4447;
      }

      .st62 {
        fill: #cacacb;
      }

      .st53 {
        fill: url(#linear-gradient32);
      }

      .st53, .st54, .st63 {
        opacity: .7;
      }

      .st54 {
        fill: url(#linear-gradient27);
      }

      .st7 {
        fill: url(#linear-gradient);
      }

      .st8 {
        fill: url(#_ÕÓ_È_Ó·_ÁÂ_ËÂÌÚ_22);
      }

      .st8, .st9, .st56 {
        opacity: .3;
      }

      .st9 {
        fill: url(#_ÕÓ_È_Ó·_ÁÂ_ËÂÌÚ_21);
      }

      .st64 {
        fill: #a6a8ab;
      }

      .st63 {
        fill: #414e52;
      }

      .st65 {
        fill: #212a2d;
      }

      .st66 {
        fill: #555e61;
      }

      .st67 {
        fill: #ec1c24;
      }
    </style>
    <filter id="drop-shadow-1" x="-3.3" y="4.1" width="323" height="193.5" filterUnits="userSpaceOnUse">
      <feOffset dx="2" dy="26"/>
      <feGaussianBlur result="blur" stdDeviation="3"/>
      <feFlood flood-color="#000" flood-opacity=".2"/>
      <feComposite in2="blur" operator="in"/>
      <feComposite in="SourceGraphic"/>
    </filter>
    <linearGradient id="linear-gradient" x1="21.3" y1="107" x2="303.3" y2="107" gradientTransform="translate(319.3 190.1) rotate(-180)" gradientUnits="userSpaceOnUse">
      <stop offset=".5" stop-color="#fff"/>
      <stop offset=".6" stop-color="#000"/>
      <stop offset=".7" stop-color="#fff"/>
      <stop offset=".9" stop-color="#fff"/>
      <stop offset="1" stop-color="#000"/>
    </linearGradient>
    <linearGradient id="_ÕÓ_È_Ó·_ÁÂ_ËÂÌÚ_2" data-name="ÕÓ‚˚È Ó·‡ÁÂˆ „‡‰ËÂÌÚ‡ 2" x1="381.5" y1="107" x2="378.1" y2="107" gradientTransform="translate(-369.1 190.1) scale(1 -1)" gradientUnits="userSpaceOnUse">
      <stop offset="0" stop-color="#fff"/>
      <stop offset="1" stop-color="#000"/>
    </linearGradient>
    <linearGradient id="linear-gradient1" x1="585.9" y1="43.7" x2="656.7" y2="43.7" gradientTransform="translate(-369.1 190.1) scale(1 -1)" gradientUnits="userSpaceOnUse">
      <stop offset="0" stop-color="#000"/>
      <stop offset=".5" stop-color="#fff"/>
      <stop offset="1" stop-color="#000"/>
    </linearGradient>
    <linearGradient id="linear-gradient2" y1="170.2" y2="170.2" xlink:href="#linear-gradient1"/>
    <linearGradient id="_ÕÓ_È_Ó·_ÁÂ_ËÂÌÚ_21" data-name="ÕÓ‚˚È Ó·‡ÁÂˆ „‡‰ËÂÌÚ‡ 2" x1="543.4" y1="48.3" x2="543.4" y2="52.1" xlink:href="#_ÕÓ_È_Ó·_ÁÂ_ËÂÌÚ_2"/>
    <linearGradient id="_ÕÓ_È_Ó·_ÁÂ_ËÂÌÚ_22" data-name="ÕÓ‚˚È Ó·‡ÁÂˆ „‡‰ËÂÌÚ‡ 2" x1="543.4" y1="167.4" x2="543.4" y2="161.4" xlink:href="#_ÕÓ_È_Ó·_ÁÂ_ËÂÌÚ_2"/>
    <linearGradient id="linear-gradient3" x1="376.1" y1="156.4" x2="377.7" y2="160.8" gradientTransform="translate(-369.1 190.1) scale(1 -1)" gradientUnits="userSpaceOnUse">
      <stop offset="0" stop-color="#555e61"/>
      <stop offset="1" stop-color="#222b2e"/>
    </linearGradient>
    <linearGradient id="linear-gradient4" x1="375.9" y1="57.4" x2="377.3" y2="54.6" xlink:href="#linear-gradient3"/>
    <linearGradient id="uuid-68dffe0a-5afa-4fd8-8975-af35d16ab122" data-name="ÕÓ‚˚È Ó·‡ÁÂˆ „‡‰ËÂÌÚ‡ 22" x1="664" y1="107" x2="682.4" y2="107" gradientTransform="translate(-369.1 190.1) scale(1 -1)" gradientUnits="userSpaceOnUse">
      <stop offset="0" stop-color="#717476"/>
      <stop offset="1" stop-color="#585b5d"/>
    </linearGradient>
    <linearGradient id="linear-gradient5" x1="674.7" y1="22.1" x2="674.7" y2="135.3" gradientTransform="translate(-369.1 190.1) scale(1 -1)" gradientUnits="userSpaceOnUse">
      <stop offset="0" stop-color="#f9fcff"/>
      <stop offset="1" stop-color="#76797a"/>
    </linearGradient>
    <linearGradient id="linear-gradient6" x1="661.4" y1="59.2" x2="669.1" y2="55.2" xlink:href="#linear-gradient3"/>
    <linearGradient id="linear-gradient7" x1="639.4" y1="48.8" x2="664.5" y2="48.8" xlink:href="#linear-gradient3"/>
    <linearGradient id="linear-gradient8" x1="661.4" y1="306.3" x2="669.1" y2="302.2" gradientTransform="translate(-369.1 -270.9)" xlink:href="#linear-gradient3"/>
    <linearGradient id="linear-gradient9" x1="639.4" y1="295.8" x2="664.5" y2="295.8" gradientTransform="translate(-369.1 -270.9)" xlink:href="#linear-gradient3"/>
    <linearGradient id="linear-gradient10" x1="492.8" y1="41" x2="492.8" y2="42.6" xlink:href="#linear-gradient3"/>
    <linearGradient id="linear-gradient11" x1="492.8" y1="40.1" x2="492.8" y2="42.1" xlink:href="#linear-gradient3"/>
    <linearGradient id="linear-gradient12" x1="109.4" y1="513.3" x2="109.4" y2="514.9" gradientTransform="translate(-507.2 -20) rotate(90) scale(1 -1)" xlink:href="#linear-gradient3"/>
    <linearGradient id="linear-gradient13" x1="109.4" y1="512.5" x2="109.4" y2="514.5" gradientTransform="translate(-507.2 -20) rotate(90) scale(1 -1)" xlink:href="#linear-gradient3"/>
    <linearGradient id="linear-gradient14" x1="506.3" y1="41" x2="506.3" y2="42.6" xlink:href="#linear-gradient3"/>
    <linearGradient id="linear-gradient15" x1="506.3" y1="40.1" x2="506.3" y2="42.1" xlink:href="#linear-gradient3"/>
    <linearGradient id="linear-gradient16" x1="492.8" y1="67.4" x2="492.8" y2="69" gradientTransform="translate(-369.1 -50.4)" xlink:href="#linear-gradient3"/>
    <linearGradient id="linear-gradient17" x1="492.8" y1="66.6" x2="492.8" y2="68.6" gradientTransform="translate(-369.1 -50.4)" xlink:href="#linear-gradient3"/>
    <linearGradient id="linear-gradient18" x1="506.3" y1="67.4" x2="506.3" y2="69" gradientTransform="translate(-369.1 -50.4)" xlink:href="#linear-gradient3"/>
    <linearGradient id="linear-gradient19" x1="506.3" y1="66.6" x2="506.3" y2="68.6" gradientTransform="translate(-369.1 -50.4)" xlink:href="#linear-gradient3"/>
    <linearGradient id="linear-gradient20" x1="567.5" y1="27.8" x2="573.6" y2="39.9" xlink:href="#linear-gradient3"/>
    <linearGradient id="linear-gradient21" x1="567.5" y1="29.7" x2="573.6" y2="41.8" gradientTransform="translate(-369.1 -25.8)" xlink:href="#linear-gradient3"/>
    <linearGradient id="linear-gradient22" x1="657.1" y1="107.1" x2="664.4" y2="107.1" xlink:href="#linear-gradient3"/>
    <linearGradient id="linear-gradient23" x1="630.2" y1="59.3" x2="661.9" y2="59.3" gradientTransform="translate(-369.1 190.1) scale(1 -1)" gradientUnits="userSpaceOnUse">
      <stop offset="0" stop-color="#706e73"/>
      <stop offset="1" stop-color="#49484b"/>
    </linearGradient>
    <linearGradient id="_ÕÓ_È_Ó·_ÁÂ_ËÂÌÚ_23" data-name="ÕÓ‚˚È Ó·‡ÁÂˆ „‡‰ËÂÌÚ‡ 2" x1="377.3" y1="48.1" x2="388.7" y2="48.1" xlink:href="#_ÕÓ_È_Ó·_ÁÂ_ËÂÌÚ_2"/>
    <linearGradient id="_ÕÓ_È_Ó·_ÁÂ_ËÂÌÚ_24" data-name="ÕÓ‚˚È Ó·‡ÁÂˆ „‡‰ËÂÌÚ‡ 2" x1="377.3" y1="41.1" x2="388.7" y2="41.1" gradientTransform="translate(-369.1 -16.9)" xlink:href="#_ÕÓ_È_Ó·_ÁÂ_ËÂÌÚ_2"/>
    <linearGradient id="linear-gradient24" x1="648.1" y1="54.7" x2="654.9" y2="70.2" gradientTransform="translate(-369.1 190.1) scale(1 -1)" gradientUnits="userSpaceOnUse">
      <stop offset="0" stop-color="#474747"/>
      <stop offset="0" stop-color="#4b4b4b"/>
      <stop offset="0" stop-color="#616161"/>
      <stop offset="0" stop-color="#727272"/>
      <stop offset="0" stop-color="#7e7e7e"/>
      <stop offset=".1" stop-color="#858585"/>
      <stop offset=".2" stop-color="#878787"/>
      <stop offset=".4" stop-color="#d3d3d3"/>
      <stop offset=".4" stop-color="#f3f3f3"/>
      <stop offset=".5" stop-color="#fff"/>
      <stop offset=".6" stop-color="#fff"/>
      <stop offset=".7" stop-color="#d3d3d3"/>
      <stop offset=".9" stop-color="#878787"/>
    </linearGradient>
    <linearGradient id="linear-gradient25" x1="634.9" y1="48.3" x2="641" y2="59.2" xlink:href="#linear-gradient24"/>
    <linearGradient id="linear-gradient26" x1="632.1" y1="62.2" x2="650.9" y2="62.2" xlink:href="#linear-gradient23"/>
    <linearGradient id="linear-gradient27" x1="639.4" y1="49.6" x2="654.8" y2="72.7" gradientTransform="translate(-369.1 190.1) scale(1 -1)" gradientUnits="userSpaceOnUse">
      <stop offset="0" stop-color="#fff"/>
      <stop offset="1" stop-color="#000"/>
    </linearGradient>
    <linearGradient id="linear-gradient28" y1="236.6" y2="236.6" gradientTransform="translate(-369.1 -201.1)" xlink:href="#linear-gradient23"/>
    <linearGradient id="linear-gradient29" x1="648.1" y1="232" x2="654.9" y2="247.5" gradientTransform="translate(-369.1 -201.1)" xlink:href="#linear-gradient24"/>
    <linearGradient id="linear-gradient30" x1="634.9" y1="225.5" x2="641" y2="236.4" gradientTransform="translate(-369.1 -201.1)" xlink:href="#linear-gradient24"/>
    <linearGradient id="linear-gradient31" x1="632.1" y1="239.5" x2="650.9" y2="239.5" gradientTransform="translate(-369.1 -201.1)" xlink:href="#linear-gradient23"/>
    <linearGradient id="linear-gradient32" x1="639.4" y1="226.8" x2="654.8" y2="250" gradientTransform="translate(-369.1 -201.1)" xlink:href="#linear-gradient27"/>
  </defs>
  <g class="st49">
    <g id="_x2014_ÎÓÈ_x5F_11">
      <g class="st0">
        <g>
          <path class="st57" d="M4,83.1c.3-18.9,2.4-52,2.4-52,0,0,1.9-9,3.3-12,0,0,10.4-2.3,16.8-2.3s183.8,1.1,183.8,1.1h6.5s5-1,14.8-1.1c9.8,0,49,0,49,0,0,0,1.5,0,3.2,1.3,1.8,1.2,11.5,6.8,11.5,6.8l9.3,15.5s2.1.7,2.6,3c.5,2.4.7,7.9.7,7.9l-.7,2.4s1.4,13.5,1.4,29.5-1.4,29.5-1.4,29.5l.7,2.4s-.2,5.5-.7,7.9c-.5,2.4-2.6,3-2.6,3l-9.3,15.5s-9.7,5.5-11.5,6.8c-1.8,1.2-3.2,1.3-3.2,1.3,0,0-39.2,0-49,0-9.8,0-14.8-1.1-14.8-1.1h-6.5s-177.4,1.1-183.8,1.1-16.8-2.3-16.8-2.3c-1.4-3.1-3.3-12-3.3-12,0,0-2.1-33.1-2.4-52Z"/>
          <path class="st7" d="M298,50.1l-4.6-.4c-4.4-.6-16.7-2.6-19.5-7.6h0c-4.8-3.7-12.1-10.9-13-14.4-.1-.6,0-1.1.1-1.5-4.8-.6-30.1-3.6-31.3-3.6s-7.4.9-13.2,1.9c-5.9,1-26.6,3.7-35,5.1-8.4,1.3-28.5,2.3-38.1,2.9-9.6.6-27.9.4-35.2.5-7.3,0-61.4.5-67.8.5s-19.1,1.2-24-2.4c0,0,.4,10.4.3,15.2,0,4.8-.7,25.2-.7,36.9s.6,32,.7,36.9c0,4.8-.3,15.2-.3,15.2,4.9-3.6,17.6-2.4,24-2.4s60.5.4,67.8.5c7.3,0,25.6,0,35.2.5,9.6.6,29.7,1.5,38.1,2.9,8.4,1.3,29.1,4.1,35,5.1,5.9,1,11.9,1.9,13.2,1.9s26.5-3,31.3-3.6c-.2-.4-.3-.9-.1-1.5.9-3.5,8.2-10.7,13-14.4h0c2.8-5,15.1-7,19.5-7.6l4.3-.6.3-65.8ZM295.9,87.6c-.6,2.6-5.7,4.6-6.8,5.1-1.1.5-1.2-1.3-1.2-1.3v-16.8s.1-1.8,1.2-1.3c1.1.5,6.2,2.5,6.8,5.1.2,1.1.3,8.1,0,9.3Z"/>
          <path class="st2" d="M278.2,26.3h18l-.9-1.4s-4.4-2.5-7.8-4.5c0,0,0,0,0,0-.7,1.1-2,2.2-3.6,2.5-1.8.3-10.8,0-13.1,0h0s-53.8-3.4-53.8-3.4v-1.6h-6.6s-177.4-1.1-183.8-1.1-16.8,2.3-16.8,2.3c-1.4,3.1-3.3,12-3.3,12,0,0-2.1,33.1-2.4,52,.3,18.9,2.4,52,2.4,52,0,0,1.9,9,3.3,12,0,0,10.4,2.3,16.8,2.3s183.8-1.1,183.8-1.1h6.5v-1.6c.1,0,54-3.4,54-3.4h0c2.4,0,11.3-.3,13.1,0,1.6.3,2.9,1.4,3.6,2.5,3.4-2,7.8-4.5,7.8-4.5l2.3-3.8-17.2,1.1c1.1-.7,2.2-1.3,3-2,4.3-3.5,9.9-18.5,9.9-18.5-8.3.4-12.8,1.8-16.9,4.1-4.1,2.3-14.5,12-15.7,16.2-.1.6,0,1.1.1,1.5-4.8.6-30.1,3.6-31.3,3.6s-7.4-.9-13.2-1.9c-5.9-1-26.6-3.7-35-5.1-8.4-1.3-28.5-2.3-38.1-2.9-9.6-.6-27.9-.4-35.2-.5-7.3,0-61.4-.5-67.8-.5s-19.1-1.2-24,2.4c0,0,.4-10.4.3-15.2,0-4.8-.7-25.2-.7-36.9s.6-32,.7-36.9c0-4.8-.3-15.2-.3-15.2,4.9,3.6,17.6,2.4,24,2.4s60.5-.4,67.8-.5c7.3,0,25.6,0,35.2-.5,9.6-.6,29.7-1.5,38.1-2.9,8.4-1.3,29.1-4.1,35-5.1,5.9-1,11.9-1.9,13.2-1.9s26.5,3,31.3,3.6c-.2.4-.3.9-.1,1.5,1.1,4.3,11.6,13.9,15.7,16.2,4.1,2.3,8.6,3.7,16.9,4.1,0,0-5.7-15-9.9-18.5-1.4-1.1-3.3-2.3-5.3-3.3ZM136.9,138.4c2.2-.3,10.5-.8,25.6,0,15.1.8,30.1,2.6,34.9,3.5,4.8.8,13.8,1.7,14.7,2.2.9.5,1.6,2.2,1.1,2.4-.5.1-72.1.5-72.1.5,0,0-3.5.3-4.5-1.9-1-2.2-1.4-4.4-1.4-4.4,0,0-.5-2,1.7-2.3ZM8.8,83.1c0,10.8.7,41.5.7,43.3,0,1.9.4,5.7,1,5.5h-.2c0,.1-.8,1-1.2-.9-.4-2-.5-10.1-.7-13.7-.2-3.6-.6-25.7-.6-34.3s.4-30.7.6-34.3c.2-3.6.3-11.7.7-13.7.4-2,1.2-1.1,1.2-1.1h.2c-.6,0-.9,3.8-1,5.7,0,1.9-.7,32.5-.7,43.3ZM212.1,22c-.9.5-9.9,1.4-14.7,2.2-4.8.8-19.8,2.7-34.9,3.5-15.1.8-23.4.3-25.6,0-2.2-.3-1.7-2.3-1.7-2.3,0,0,.4-2.2,1.4-4.4,1-2.2,4.5-1.9,4.5-1.9,0,0,71.5.3,72.1.5.5.1-.2,1.9-1.1,2.4Z"/>
          <path class="st2" d="M216.8,17.9s.3,0,.8-.1h-.8Z"/>
          <path class="st3" d="M13.9,83.1c0-3.5,1.1-41.9,1.1-45.1,0-3.2-.8-4.4-1.5-5.1-.7-.7-3.3-3-3.3-3l-1.3-.5-1.8-1.4c-.4,1.8-.7,3.1-.7,3.1,0,0-2.1,33.1-2.4,52,.3,18.9,2.4,52,2.4,52,0,0,.3,1.3.7,3.1l1.5-1.2,1.5-.8s2.5-2.3,3.3-3c.7-.7,1.4-1.9,1.5-5.1,0-3.2-1.1-41.6-1.1-45.1ZM8.8,83.1c0,10.8.7,41.5.7,43.3,0,1.9.4,5.7,1,5.5h-.2c0,.1-.8,1-1.2-.9-.4-2-.5-10.1-.7-13.7-.2-3.6-.6-25.7-.6-34.3s.4-30.7.6-34.3c.2-3.6.3-11.7.7-13.7.4-2,1.2-1.1,1.2-1.1h.2c-.6,0-.9,3.8-1,5.7,0,1.9-.7,32.5-.7,43.3Z"/>
          <path class="st1" d="M10.5,131.9h0c-.6.1-.9-3.7-1-5.5,0-1.9-.7-32.5-.7-43.3s.7-41.5.7-43.3c0-1.9.4-5.7,1-5.5h0l3.1,2.9v91.9l-3.1,2.9Z"/>
          <path class="st6" d="M270.7,143.3h0c2.4,0,11.3-.3,13.1,0,1.6.3,2.9,1.4,3.6,2.5-1.7,1-3.1,1.9-3.7,2.3-1.8,1.2-3.2,1.3-3.2,1.3,0,0-39.2,0-49,0-7.5,0-12.2-.7-14-1h-.8c0-.1.1-1.7.1-1.7l53.8-3.4Z"/>
          <path class="st5" d="M270.7,22.8h0c2.4,0,11.3.3,13.1,0,1.6-.3,2.9-1.4,3.6-2.5-1.7-1-3.1-1.9-3.7-2.3-1.8-1.2-3.2-1.3-3.2-1.3,0,0-39.2,0-49,0-7.5,0-12.2.7-14,1h-.8c0,.1.1,1.7.1,1.7l53.8,3.4Z"/>
          <path class="st9" d="M135.2,140.7s-.5-2,1.7-2.3c2.2-.3,10.5-.8,25.6,0,15.1.8,30.1,2.6,34.9,3.5,4.8.8,13.8,1.7,14.7,2.2.9.5,1.6,2.2,1.1,2.4-.5.1-72.1.5-72.1.5,0,0-3.5.3-4.5-1.9-1-2.2-1.4-4.4-1.4-4.4Z"/>
          <path class="st8" d="M135.2,25.4s-.5,2,1.7,2.3c2.2.3,10.5.8,25.6,0,15.1-.8,30.1-2.6,34.9-3.5,4.8-.8,13.8-1.7,14.7-2.2.9-.5,1.6-2.2,1.1-2.4-.5-.1-72.1-.5-72.1-.5,0,0-3.5-.3-4.5,1.9-1,2.2-1.4,4.4-1.4,4.4Z"/>
          <path class="st41" d="M210.6,145.6s-60.8.1-64.8.1-5-.2-5.8-.7c-.8-.5-2.1-4.2-2.3-5.7,0-.4,0-.7,0-1,3-.3,11.1-.6,24.9,0,15.1.8,30.1,2.6,34.9,3.5,3.8.7,10.2,1.3,13.2,1.9.7,1.8,0,1.8,0,1.8Z"/>
          <path class="st47" d="M206.8,145.1s-56.8.1-60.7.1-5-.2-5.8-.7c-.8-.5-2.1-4.2-2.3-5.7,0-.2,0-.3,0-.4,3.2-.3,11.2-.6,24.6.1,15.1.8,30.1,2.6,34.9,3.5,2.6.4,6.3.9,9.4,1.3.7,1.7,0,1.8,0,1.8Z"/>
          <path class="st41" d="M238.6,83.1c0-25.2-3.6-46.3-5.5-53.1-1.9-6.9-10.9-4.8-10.9-4.8l-42.4,6.1s1.8,36.3,1.8,51.8-1.8,51.8-1.8,51.8l42.4,6.1s9.1,2.1,10.9-4.8c1.9-6.9,5.5-28,5.5-53.1Z"/>
          <path class="st47" d="M225.3,26.8c-1.5,0-2.6.3-2.6.3h0s-40.8,5.9-40.8,5.9c.4,7.4,1.7,36.7,1.7,50.1s-1.3,42.7-1.7,50.1l40.8,5.9h0s1.1.3,2.6.3c3.4,0,5.4-1.2,6-3.7,2.1-7.8,5.4-28.9,5.4-52.6s-3.3-44.9-5.4-52.6c-.7-2.4-2.7-3.7-6-3.7Z"/>
          <path class="st41" d="M210.6,20.6s-60.8-.1-64.8-.1-5,.2-5.8.7c-.8.5-2.1,4.2-2.3,5.7,0,.4,0,.7,0,1,3,.3,11.1.6,24.9,0,15.1-.8,30.1-2.6,34.9-3.5,3.8-.7,10.2-1.3,13.2-1.9.7-1.8,0-1.8,0-1.8Z"/>
          <path class="st47" d="M162.5,27.7c-13.2.7-21.2.4-24.5.1,0-.2,0-.4,0-.6.2-1.5,1.5-5.2,2.3-5.7.8-.5,1.9-.7,5.8-.7s62.3.1,62.3.1c0,0,.7,0,0,1.8-3.3.5-8.1,1-11.1,1.5-4.8.8-19.8,2.7-34.9,3.5Z"/>
          <path class="st44" d="M181.8,33l40.8-5.9h0s1.1-.3,2.6-.3c3.3,0,5.4,1.2,6,3.7,2.1,7.8,5.4,28.9,5.4,52.6s0,2.5,0,3.7c-16.8-8.6-38.9-14.4-53.5-17.6-.4-14-1.2-30.8-1.4-36.2Z"/>
          <g class="st56">
            <path class="st46" d="M26.6,128.8c0,0-.1,0-.2,0-.3,0-.8,0-1.4,0-3.1,0-8.9,0-10.5,1.6l.3.3c1.5-1.5,7.4-1.5,10.2-1.4.6,0,1,0,1.4,0,1.9,0,82.2,1.4,94,1.8,10,.3,28.5.9,39.2,1.6,10.1.7,20.3,2.1,20.4,2.2v-.4s-10.2-1.5-20.3-2.2c-10.7-.7-29.1-1.3-39.2-1.6-11.6-.4-89.5-1.8-93.8-1.8Z"/>
          </g>
          <g class="st56">
            <path class="st46" d="M159.6,132.3v.4c10.1.7,20.2,2.1,20.3,2.2v-.4s-10.2-1.5-20.3-2.2Z"/>
          </g>
          <g class="st56">
            <path class="st46" d="M179.8,31.1c0,0-10.1,1.6-20.2,2.3-10.7.7-29.1,1.3-39.2,1.6-11.8.4-92,1.9-94,1.8-.3,0-.8,0-1.4,0-2.8,0-8.7,0-10.2-1.4l-.3.3c1.6,1.6,7.4,1.6,10.5,1.6.6,0,1,0,1.4,0,1.9,0,82.2-1.4,94-1.8,10.1-.3,28.5-.9,39.2-1.6,10.1-.7,20.1-2.3,20.2-2.3v-.4Z"/>
          </g>
          <g class="st4">
            <path d="M26.6,129c0,0-.1,0-.2,0-.3,0-.8,0-1.4,0-3.1,0-8.9,0-10.4,1.5h.1c1.5-1.4,7.2-1.4,10.3-1.4.5,0,1,0,1.4,0,1.9,0,82.2,1.4,94,1.8,10,.3,28.5.9,39.2,1.6,10.1.7,20.3,2.1,20.4,2.2v-.2c0,0-10.2-1.5-20.4-2.2-10.7-.7-29.1-1.3-39.2-1.6-11.6-.4-89.5-1.8-93.8-1.8Z"/>
          </g>
          <g class="st4">
            <path d="M179.8,31.3c0,0-10.1,1.6-20.2,2.3-10.7.7-29.1,1.3-39.2,1.6-11.8.4-92,1.9-94,1.8-.3,0-.8,0-1.4,0-3.1,0-8.8,0-10.3-1.5h-.1c1.6,1.7,7.3,1.7,10.4,1.7.5,0,1,0,1.4,0,0,0,0,0,.2,0,4.4,0,82.2-1.4,93.8-1.8,10-.3,28.5-.9,39.2-1.6,10.1-.7,20.1-2.3,20.2-2.3v-.2Z"/>
          </g>
          <g class="st55">
            <rect class="st46" x="233.3" y="136.4" width="29.4" height=".5" transform="translate(-12.8 26.3) rotate(-5.9)"/>
            <path class="st46" d="M216.5,148.4v-1.6c0-.3-.5-2.6-2.2-3.3-1.5-.6-16.3-2.6-26.1-3.9-2.3-.3-4.3-.6-5.9-.8-8.4-1.1-21.1-2.4-29.2-2.5-5.3-.1-14.6-.3-24-.4,0,1.1-.1,5.7,0,7.6.1,1.8,1.6,5.3,1.6,5.3l-.4.2c0-.1-1.5-3.6-1.6-5.5-.2-1.9,0-6.5,0-7.6-5.1,0-10.2-.2-14.7-.2-11.9-.2-33.2-.2-40.2-.1-6.2,0-6.5,4.8-6.6,6.6v.2c-.1,1.5-.7,7-.7,7h-.4c0-.1.6-5.5.7-7v-.2c.1-1.7.5-6.9,7.1-7,2,0,5.1,0,8.8,0,9.5,0,22.8,0,31.4.2,12.8.2,30.9.5,39.1.6,8.1.2,20.8,1.4,29.2,2.5,1.5.2,3.5.5,5.9.8,9.8,1.3,24.6,3.2,26.2,3.9,2,.8,2.6,3.6,2.6,3.7h0s-.1,1.7-.1,1.7h-.4Z"/>
            <rect class="st46" x="247.7" y="14.7" width=".5" height="29.6" transform="translate(193.3 273.1) rotate(-84.1)"/>
            <path class="st46" d="M214.5,23.2c-1.6.7-16.4,2.6-26.2,3.9-2.3.3-4.4.6-5.9.8-8.4,1.1-21.1,2.4-29.2,2.5-8.2.2-26.4.4-39.1.6-12,.2-33.2.2-40.2.1-6.6,0-7-5.3-7.1-7v-.2c-.1-1.5-.7-6.9-.7-7h.4s.6,5.4.7,7v.2c.1,1.8.4,6.5,6.6,6.6,7,0,28.3,0,40.2-.1,4.5,0,9.6-.1,14.7-.2,0-1.1-.1-5.7,0-7.6.1-1.9,1.6-5.3,1.6-5.5l.4.2s-1.5,3.5-1.6,5.3c-.1,1.9,0,6.5,0,7.6,9.4-.1,18.7-.3,24-.4,8.1-.2,20.8-1.4,29.2-2.5,1.5-.2,3.5-.5,5.9-.8,9.8-1.3,24.6-3.2,26.1-3.9,1.7-.7,2.2-3.1,2.3-3.3v-1.6c-.1,0,.3,0,.3,0v1.6c.1,0,.1,0,.1,0,0,.1-.6,2.9-2.6,3.7Z"/>
          </g>
          <g class="st4">
            <polygon points="262.6 135.1 233.4 138.1 233.4 138.3 262.6 135.2 262.6 135.1"/>
          </g>
          <g class="st4">
            <path d="M82.7,135.1c-3.7,0-6.8,0-8.8,0-6.5,0-6.8,5-6.9,6.9v.2c-.1,1.5-.7,6.9-.7,7h.2s.6-5.4.7-7v-.2c.1-1.8.4-6.6,6.8-6.7,7,0,28.3,0,40.2.1,12.8.2,30.9.5,39.1.6,8.1.2,20.8,1.4,29.2,2.5,1.5.2,3.5.5,5.9.8,9.8,1.3,24.6,3.2,26.1,3.9,1.8.7,2.3,3.3,2.4,3.5v1.7c-.1,0,0,0,0,0v-1.7c.1,0,.1,0,.1,0,0-.1-.6-2.8-2.5-3.6-1.5-.7-16.4-2.6-26.2-3.9-2.3-.3-4.3-.6-5.9-.8-8.4-1.1-21.1-2.4-29.2-2.5-8.2-.2-26.4-.4-39.1-.6-8.6-.1-21.9-.2-31.4-.2Z"/>
          </g>
          <g class="st4">
            <path d="M129,135.6c0,0-.2,5.7,0,7.8.1,1.8,1.6,5.3,1.6,5.4h.2c0-.1-1.5-3.6-1.6-5.4-.2-2.1,0-7.8,0-7.8h-.2Z"/>
          </g>
          <g class="st4">
            <rect x="247.8" y="14.7" width=".2" height="29.6" transform="translate(193.2 273.1) rotate(-84.1)"/>
          </g>
          <g class="st4">
            <path d="M66.4,17h-.2c0,0,.6,5.5.7,7v.2c.1,1.7.5,6.8,7,6.9,7,0,28.3,0,40.2-.1,12.8-.2,30.9-.5,39.1-.6,8.1-.2,20.8-1.4,29.2-2.5,1.5-.2,3.5-.5,5.9-.8,9.8-1.3,24.6-3.2,26.2-3.9,1.9-.8,2.5-3.5,2.5-3.6h0s-.1-1.6-.1-1.6h-.2s.1,1.6.1,1.6c0,.2-.6,2.7-2.4,3.5-1.5.6-16.3,2.6-26.1,3.9-2.3.3-4.4.6-5.9.8-8.4,1.1-21.1,2.4-29.2,2.5-8.2.2-26.4.4-39.1.6-12,.2-33.2.2-40.2.1-6.3,0-6.7-4.9-6.8-6.7v-.2c-.1-1.5-.7-6.9-.7-7Z"/>
          </g>
          <g class="st4">
            <path d="M130.6,17.3c0,.1-1.5,3.6-1.6,5.4-.2,2.1,0,7.8,0,7.8h.2c0,0-.2-5.7,0-7.8.1-1.8,1.6-5.3,1.6-5.4h-.2Z"/>
          </g>
          <path class="st66" d="M4,83.1c.3-18.9,2.4-52,2.4-52,0,0,.3-1.3.7-3.1l1.8,1.3c-.8,2.4-.8,2.4-.8,3.2,0,.1-.4,15.5-.4,20.8s-.3,22.4-.3,29.9.3,25.3.3,29.9.4,20.7.4,20.8c0,.7,0,.8.8,3.2l-1.8,1.3c-.4-1.8-.7-3.1-.7-3.1,0,0-2.1-33.1-2.4-52Z"/>
          <path class="st11" d="M8.9,29.3c-.8,2.4-.8,2.4-.8,3.2,0,0,0,1.3,0,3.2h0s-1.8-1.1-1.8-1.1c.1-2.2.2-3.5.2-3.5,0,0,.3-1.3.7-3.1l1.8,1.3Z"/>
          <path class="st16" d="M6.4,135.1s0-1.3-.2-3.5l1.8-1.1h0c0,1.9,0,3.2,0,3.2,0,.7,0,.8.8,3.2l-1.8,1.3c-.4-1.8-.7-3.1-.7-3.1Z"/>
          <path class="st19" d="M304.2,116.8l-10.8,1.3,1.6-1.8c1.6-4.8,2.8-24.9,2.8-33.2s-1.2-28.4-2.8-33.2l-1.6-1.8,10.8,1.3c.8,6.8,1.5,33.7,1.5,33.7,0,0-.7,27-1.5,33.7Z"/>
          <path class="st15" d="M305.7,51.5c.7,7.9,1.3,23.9,1.3,31.5s-.5,23.7-1.3,31.6l-1.5,2.1c.8-6.8,1.5-33.7,1.5-33.7,0,0-.7-26.9-1.5-33.7l1.5,2.1Z"/>
          <path class="st66" d="M307.1,53.6s1.4,13.5,1.4,29.5-1.4,29.5-1.4,29.5h0s-1.4,2.1-1.4,2.1c.7-7.9,1.3-23.9,1.3-31.6s-.5-23.6-1.3-31.5l1.4,2Z"/>
          <g>
            <path class="st12" d="M304.6,125.8l-9.3,15.5s-4.4,2.5-7.8,4.5c-.7-1.1-2-2.2-3.6-2.5-2.1-.4-13.7,0-13.7,0,0,0,8.9-3.2,13.2-6.7,4.3-3.5,9.9-18.5,9.9-18.5l10.8-1.3,3.7-1.9s-.2,5.5-.7,7.9c-.5,2.4-2.6,3-2.6,3Z"/>
            <polygon class="st59" points="296.3 126.2 304.6 125.8 304.2 126.5 296.3 126.2"/>
            <path class="st14" d="M283.9,143.3c-2.1-.4-13.7,0-13.7,0,0,0,8.7-3.2,13.1-6.6,3.3.2,11.2,1,12,4.6,0,0-4.4,2.5-7.8,4.5-.7-1.1-2-2.2-3.6-2.5Z"/>
            <polygon class="st59" points="304.2 116.8 307.1 112.6 307.9 115 304.2 116.8"/>
          </g>
          <g>
            <path class="st13" d="M304.6,40.4l-9.3-15.5s-4.4-2.5-7.8-4.5c-.7,1.1-2,2.2-3.6,2.5-2.1.4-13.7,0-13.7,0,0,0,8.9,3.2,13.2,6.7,4.3,3.5,9.9,18.5,9.9,18.5l10.8,1.3,3.7,1.9s-.2-5.5-.7-7.9c-.5-2.4-2.6-3-2.6-3Z"/>
            <polygon class="st59" points="296.3 40.1 304.6 40.4 304.2 39.7 296.3 40.1"/>
            <path class="st10" d="M283.9,22.9c-2.1.4-13.7,0-13.7,0,0,0,8.7,3.2,13.1,6.6,3.3-.2,11.2-1,12-4.6,0,0-4.4-2.5-7.8-4.5-.7,1.1-2,2.2-3.6,2.5Z"/>
            <polygon class="st59" points="304.2 49.4 307.1 53.6 307.9 51.3 304.2 49.4"/>
          </g>
          <polygon class="st66" points="19.2 146.6 66.2 147.2 66.2 146.6 19.3 146.1 19.2 146.6"/>
          <polygon class="st66" points="19.2 19.6 66.2 19 66.2 19.6 19.3 20.1 19.2 19.6"/>
          <g>
            <rect class="st30" x="119.2" y="147.5" width="8.8" height="1.5"/>
            <rect class="st65" x="120.5" y="148" width="6.7" height="1"/>
            <rect class="st29" x="122.5" y="148" width="2.4" height="1.9"/>
          </g>
          <g>
            <rect class="st26" x="6.1" y="85" width="1.5" height="8.8"/>
            <rect class="st65" x="6.1" y="86.2" width="1" height="6.7"/>
            <rect class="st25" x="5.3" y="88.2" width="1.9" height="2.4"/>
          </g>
          <g>
            <rect class="st32" x="132.8" y="147.5" width="8.8" height="1.5"/>
            <rect class="st65" x="134" y="148" width="6.7" height="1"/>
            <rect class="st27" x="136" y="148" width="2.4" height="1.9"/>
          </g>
          <g>
            <rect class="st28" x="119.2" y="17" width="8.8" height="1.5"/>
            <rect class="st65" x="120.5" y="17" width="6.7" height="1"/>
            <rect class="st31" x="122.5" y="16.2" width="2.4" height="1.9"/>
          </g>
          <g>
            <rect class="st24" x="132.8" y="17" width="8.8" height="1.5"/>
            <rect class="st65" x="134" y="17" width="6.7" height="1"/>
            <rect class="st33" x="136" y="16.2" width="2.4" height="1.9"/>
          </g>
          <path class="st47" d="M238.6,132.5c-5,7.7-9.8,8.3-9.8,8.3h0c1.9-.6,3.6-1.9,4.3-4.5,1.9-6.9,5.5-28,5.5-53.1s-3.6-46.3-5.5-53.1c-.7-2.6-2.4-3.9-4.3-4.5h0s4.8.6,9.8,8.3c5,7.7,8.3,28,8.3,49.4s-3.4,41.7-8.3,49.4Z"/>
          <g>
            <path class="st61" d="M195.1,161.6l5.6-10.7s.6-1.2,1.8-1.4l.7-3.1h6.1l-1.4,4.6s-.7,3.1-2.4,5.5c-1.6,2.4-5.8,5.7-5.8,5.7l-4.6-.5Z"/>
            <path class="st65" d="M199.8,162s.2-1.5,1.3-3c1.1-1.5,3.4-5.9,4.1-6.7.7-.8,1.8-1.4,2.7-1.4,0,0-.7,3.1-2.4,5.5-1.5,2.1-4.9,5-5.7,5.6Z"/>
            <path class="st39" d="M205.2,152.3c-.7.8-2.9,5.2-4.1,6.7-1.1,1.5-1.3,3-1.3,3h-.2c0,.1-4.5-.4-4.5-.4l5.6-10.7s.6-1.2,1.8-1.4h0c0-.1.1-.2.1-.2l5.3,1.6c-.9,0-2,.6-2.7,1.4Z"/>
            <polygon class="st41" points="201.4 142.5 203.2 146.3 209.2 146.3 210.1 143.7 201.4 142.5"/>
          </g>
          <g>
            <path class="st61" d="M195.1,4.6l5.6,10.7s.6,1.2,1.8,1.4l.7,3.1h6.1l-1.4-4.6s-.7-3.1-2.4-5.5c-1.6-2.4-5.8-5.7-5.8-5.7l-4.6.5Z"/>
            <path class="st65" d="M199.8,4.2s.2,1.5,1.3,3c1.1,1.5,3.4,5.9,4.1,6.7.7.8,1.8,1.4,2.7,1.4,0,0-.7-3.1-2.4-5.5-1.5-2.1-4.9-5-5.7-5.6Z"/>
            <path class="st38" d="M205.2,13.9c-.7-.8-2.9-5.2-4.1-6.7-1.1-1.5-1.3-3-1.3-3h-.2c0-.1-4.5.4-4.5.4l5.6,10.7s.6,1.2,1.8,1.4h0c0,.1.1.2.1.2l5.3-1.6c-.9,0-2-.6-2.7-1.4Z"/>
            <polygon class="st41" points="201.4 23.6 203.2 19.9 209.2 19.9 210.1 22.5 201.4 23.6"/>
          </g>
          <g>
            <path class="st43" d="M7.1,138.2l1-.7,3.6,9,4.5,1.1c-.5.2-1,.4-1.4.5-2.9-.5-5-1-5-1-.9-1.9-1.9-6.1-2.6-8.9Z"/>
            <path class="st42" d="M9.7,147.1c-.9-1.9-1.9-6.1-2.6-8.9l1-.7,3.6,9-2,.6Z"/>
          </g>
          <g>
            <path class="st43" d="M7.1,28l1,.7,3.6-9,4.5-1.1c-.5-.2-1-.4-1.4-.5-2.9.5-5,1-5,1-.9,1.9-1.9,6.1-2.6,8.9Z"/>
            <path class="st42" d="M9.7,19c-.9,1.9-1.9,6.1-2.6,8.9l1,.7,3.6-9-2-.6Z"/>
          </g>
          <path class="st35" d="M288.3,92.4s0,0,0,0c-.3-.4-.3-1.1-.3-1.1v-16.8s0-.7.3-1.1c1.2.5,6.1,2.5,6.7,5,.2,1.1.4,7.7.1,8.9-.6,2.6-5.7,4.6-6.8,5.1Z"/>
          <path class="st63" d="M293.4,118.1s-5.7,15-9.9,18.5c-4.3,3.5-13.2,6.7-13.2,6.7,0,0-10.6-.6-9.5-4.9,1.1-4.3,11.6-13.9,15.7-16.2,4.1-2.3,8.6-3.7,16.9-4.1Z"/>
          <path class="st34" d="M292.8,118.5c-8.3.5-12.5,2-16.1,4-4.1,2.3-14.4,11.9-15.5,16-.2.6,0,1.1.3,1.6,1.6,2.2,8,2.7,8.7,2.8.9-.3,9-3.4,13-6.6,3.7-3,8.6-15.1,9.6-17.8Z"/>
          <rect class="st17" x="13.4" y="78.8" width=".6" height="19.9"/>
          <g>
            <path class="st60" d="M225.8,146.2v.9s.3.4.8.4c.6,0,5.1-.2,5.1-.2,0,0,.6-.3.6-.6,0-.3,0-.9,0-.9l-6.5.4Z"/>
            <path class="st50" d="M232.3,146.7c0,.3-.6.6-.6.6,0,0-4.5.1-5.1.2-.6,0-.8-.4-.8-.4h0s6.5-.4,6.5-.4Z"/>
          </g>
          <g>
            <path class="st60" d="M225.8,20v-.9s.3-.4.8-.4c.6,0,5.1.2,5.1.2,0,0,.6.3.6.6,0,.3,0,.9,0,.9l-6.5-.4Z"/>
            <path class="st50" d="M232.3,19.5c0-.3-.6-.6-.6-.6,0,0-4.5-.1-5.1-.2-.6,0-.8.4-.8.4h0s6.5.4,6.5.4Z"/>
          </g>
          <g>
            <path class="st48" d="M19.2,146.7c-1.1.2-2.1.5-3,.8,0,0,0,0,0,0l-4.5-1.1-3.6-9,.8-.6,1.3-.6c1.8,4.4,7,8.4,7,8.4l2.4.5-.4,1.6Z"/>
            <polygon class="st18" points="15.9 145.4 11.7 146.5 16.2 147.5 19.1 146.6 15.9 145.4"/>
            <path class="st62" d="M8.9,136.9l.8-.4c.2.6,1.3,3.9,2.5,5.9,0,0-.4.7-.7.7-.3,0-2.2-4.3-2.8-6.1l.3-.2Z"/>
            <path class="st51" d="M19.2,146.7c-1.1.2-2.1.5-3,.8,0,0,0,0,0,0l-4.5-1.1-3.6-9,.8-.6,1.3-.6c1.8,4.4,7,8.4,7,8.4l2.4.5-.4,1.6Z"/>
            <path class="st58" d="M10.3,136.4h0c1.9,4.4,6.9,8.2,6.9,8.2l2.4.5-.4,1.6-3.3-1.3s-4.9-4.7-5.6-9Z"/>
          </g>
          <g>
            <path class="st48" d="M19.2,19.5c-1.1-.2-2.1-.5-3-.8,0,0,0,0,0,0l-4.5,1.1-3.6,9,.8.6,1.3.6c1.8-4.4,7-8.4,7-8.4l2.4-.5-.4-1.6Z"/>
            <polygon class="st18" points="15.9 20.7 11.7 19.7 16.2 18.6 19.1 19.5 15.9 20.7"/>
            <path class="st62" d="M8.9,29.3l.8.4c.2-.6,1.3-3.9,2.5-5.9,0,0-.4-.7-.7-.7-.3,0-2.2,4.3-2.8,6.1l.3.2Z"/>
            <path class="st52" d="M19.2,19.5c-1.1-.2-2.1-.5-3-.8,0,0,0,0,0,0l-4.5,1.1-3.6,9,.8.6,1.3.6c1.8-4.4,7-8.4,7-8.4l2.4-.5-.4-1.6Z"/>
            <path class="st58" d="M10.3,29.8h0c1.9-4.4,6.9-8.2,6.9-8.2l2.4-.5-.4-1.6-3.3,1.3s-4.9,4.7-5.6,9Z"/>
          </g>
          <path class="st36" d="M286.8,129.8c1.5-4.1.6-8.2-2-9.1-2.6-1-5.9,1.6-7.4,5.7-1.5,4.1-.6,8.2,2,9.1,2.6,1,5.9-1.6,7.4-5.7Z"/>
          <path class="st37" d="M272,137.6c1-2.8.4-5.6-1.4-6.3-1.8-.7-4.1,1.1-5.1,3.9-1,2.8-.4,5.6,1.4,6.3,1.8.7,4.1-1.1,5.1-3.9Z"/>
          <path class="st40" d="M276.7,122.6c1.5-.9,3.2-1.6,5.1-2.3-1.2,2.7-3.6,7.3-7,10.4-3.2,3-8.4,4.2-11.8,4.7,3.4-4.6,10.5-11,13.7-12.8Z"/>
          <path class="st54" d="M292.8,118.5c-8.3.5-12.5,2-16.1,4-4.1,2.3-14.4,11.9-15.5,16-.2.6,0,1.1.3,1.6,1.6,2.2,8,2.7,8.7,2.8.9-.3,9-3.4,13-6.6,3.7-3,8.6-15.1,9.6-17.8Z"/>
          <path class="st45" d="M276.9,133c-5,4.7-11.9,6.1-15.8,6.5,0-.3,0-.6,0-.9,1.1-4.1,11.4-13.7,15.5-16,2.5-1.4,5.2-2.5,9.1-3.3-1.1,3-3.6,8.9-8.9,13.7Z"/>
          <path class="st63" d="M293.4,48s-5.7-15-9.9-18.5c-4.3-3.5-13.2-6.7-13.2-6.7,0,0-10.6.6-9.5,4.9,1.1,4.3,11.6,13.9,15.7,16.2,4.1,2.3,8.6,3.7,16.9,4.1Z"/>
          <path class="st22" d="M292.8,47.6c-8.3-.5-12.5-2-16.1-4-4.1-2.3-14.4-11.9-15.5-16-.2-.6,0-1.1.3-1.6,1.6-2.2,8-2.7,8.7-2.8.9.3,9,3.4,13,6.6,3.7,3,8.6,15.1,9.6,17.8Z"/>
          <path class="st23" d="M286.8,36.3c1.5,4.1.6,8.2-2,9.1-2.6,1-5.9-1.6-7.4-5.7-1.5-4.1-.6-8.2,2-9.1,2.6-1,5.9,1.6,7.4,5.7Z"/>
          <path class="st21" d="M272,28.5c1,2.8.4,5.6-1.4,6.3-1.8.7-4.1-1.1-5.1-3.9-1-2.8-.4-5.6,1.4-6.3,1.8-.7,4.1,1.1,5.1,3.9Z"/>
          <path class="st20" d="M276.7,43.6c1.5.9,3.2,1.6,5.1,2.3-1.2-2.7-3.6-7.3-7-10.4-3.2-3-8.4-4.2-11.8-4.7,3.4,4.6,10.5,11,13.7,12.8Z"/>
          <path class="st53" d="M292.8,47.6c-8.3-.5-12.5-2-16.1-4-4.1-2.3-14.4-11.9-15.5-16-.2-.6,0-1.1.3-1.6,1.6-2.2,8-2.7,8.7-2.8.9.3,9,3.4,13,6.6,3.7,3,8.6,15.1,9.6,17.8Z"/>
          <path class="st45" d="M276.9,33.1c-5-4.7-11.9-6-15.8-6.5,0,.3,0,.6,0,.9,1.1,4.1,11.4,13.7,15.5,16,2.5,1.4,5.2,2.5,9.1,3.3-1.1-3-3.6-8.9-8.9-13.7Z"/>
        </g>
        <g>
          <path class="st67" d="M90.9,69h7.8c4.7-7.3,12.8-12.2,22.1-12.2,14.4,0,26.2,11.7,26.2,26.2s-11.7,26.2-26.2,26.2-17.5-4.9-22.1-12.2h-7.8c5.3,11.2,16.7,19,29.9,19s33-14.8,33-33-14.8-33-33-33-24.6,7.8-29.9,19"/>
          <path class="st67" d="M100.3,73.9h-23.9c-.4,0-.7.4-.5.8,1.2,2.7,4,5,7.1,5.1l14.8.4c1.9,0,2.8-1.1,3.1-2.8l19.4,1.5c1.6,0,2.9-1.3,2.9-2.9s-1.3-2.9-2.9-2.9l-20,.9Z"/>
          <path class="st67" d="M95.1,85.1c-.9-1.6-2.6-2.6-4.6-2.6l-12.4.7c-.5,0-.8.4-.8.9h0c0,.5.4.9.9.9l9.9-.4c.5,0,.9.4.9.9,0,.5-.4.9-.9.9l-10,.4c-.5,0-.9.4-.9.9h0c0,.6.4,1,.9,1l10,.4c.5,0,.9.4.9.9,0,.5-.4.9-.9.9l-9.9-.4c-.5,0-.9.3-1,.8,0,.5.3,1,.8,1l12.4.7c1.9,0,3.6-1,4.6-2.6.4-.7,1.2-1.1,2-1.1,0,0,23,1.3,23.1,1.3,1.6,0,2.9-1.3,2.9-2.9s-1.3-2.9-2.9-2.9-23.1,1.3-23.1,1.3c-.8,0-1.6-.4-2-1.1"/>
        </g>
        <g>
          <path class="st46" d="M260.9,89.1l2.2.8v-1.7l-2.2.8ZM265.9,90.9v1.4l-7-2.7v-1.2l7-2.7v1.5l-1.5.5v2.6l1.5.5Z"/>
          <path class="st46" d="M261.7,83.1c0,.9.7,1.5,1.6,1.5s1.5-.7,1.5-1.6-.7-1.4-1.5-1.4-1.6.6-1.6,1.5M258.9,81.5v-1.2h7v1.2h-.4c.4.5.6,1,.6,1.6s-.2,1.3-.6,1.7c-.5.6-1.3,1-2.2,1s-1.5-.3-2-.9c-.5-.5-.7-1.1-.7-1.8s.2-1.2.5-1.6h-2.1Z"/>
          <polygon class="st46" points="265.9 77.8 260.6 79.8 260.6 78.5 264.1 77.3 260.6 76 260.6 74.8 265.9 76.9 265.9 77.8"/>
          <path class="st46" d="M264.8,72c0-.8-.7-1.5-1.5-1.5s-1.6.7-1.6,1.5.7,1.5,1.5,1.5,1.6-.7,1.6-1.5M265.2,70.4c.5.3.8.8.8,1.6,0,1.6-1.2,2.7-2.8,2.7s-1.4-.3-1.9-.8c-.6-.5-.8-1.2-.8-1.9s.3-1.3.8-1.7h-.6v-1.2h5.3v1.2h-.6Z"/>
          <path class="st46" d="M261.2,67.2c-.5-.4-.7-.8-.7-1.4s.3-1.3.9-1.7c.5-.3,1-.3,1.7-.3h2.8v1.2h-2.3c-1.2,0-1.8.2-1.8,1.1s.6,1.1,1.9,1.1h2.3v1.2h-5.3v-1.2h.6Z"/>
          <path class="st46" d="M261.7,60.5c0,.8.7,1.5,1.6,1.5s1.6-.6,1.6-1.5-.3-1.1-.9-1.3v-1.3c1.3.3,2.1,1.3,2.1,2.6s-.3,1.4-.8,2c-.5.5-1.2.8-1.9.8s-1.4-.3-1.9-.8c-.6-.5-.9-1.2-.9-2,0-1.3.8-2.3,2-2.6v1.3c-.5.3-.8.7-.8,1.4"/>
          <path class="st46" d="M261.6,54.6c0,.6.4,1.2,1.1,1.4v-2.9c-.7.2-1.1.7-1.1,1.5M264.9,54.5c0-.5-.2-1-.7-1.3v-1.3c1.2.5,1.8,1.4,1.8,2.5s-.3,1.4-.8,2c-.5.5-1.2.8-1.9.8s-1.4-.3-1.9-.7c-.6-.5-.9-1.2-.9-2s.4-1.7,1.2-2.3c.5-.4,1-.5,1.7-.5s.2,0,.3,0v4.2c.8,0,1.2-.6,1.2-1.5"/>
          <path class="st64" d="M271,85.5c.6,0,1.1.1,1.6.3,1.3.7,2,1.8,2,3.3s-.4,1.9-1.2,2.7c-.7.6-1.5.9-2.5.9s-1.9-.4-2.6-1.1c-.7-.7-1-1.5-1-2.6,0-1.5.7-2.6,2.2-3.2v1.7c-.5.4-.8.9-.8,1.6,0,1.2,1,2.1,2.2,2.1s2.2-.9,2.2-2.2-.5-1.6-1.3-1.9v2.7h-1.2v-4.3c0,0,.2,0,.2,0"/>
          <path class="st64" d="M271.8,83.6h2.7v1.2h-5.3v-1.1h.6c-.5-.4-.7-.8-.7-1.4h1.1c0,1,.5,1.3,1.5,1.3"/>
          <path class="st64" d="M273.4,79.2c0-.9-.6-1.5-1.6-1.5s-1.5.6-1.5,1.5.6,1.5,1.5,1.5,1.6-.6,1.6-1.5M269.9,81.2c-.5-.5-.8-1.2-.8-1.9s.3-1.4.8-1.9c.5-.5,1.3-.9,2-.9s1.5.3,2,.8c.5.5.8,1.2.8,2s-.3,1.4-.8,2c-.5.5-1.2.8-1.9.8s-1.4-.3-1.9-.8"/>
          <path class="st64" d="M273.9,72.4c.5.4.7.8.7,1.4,0,1.3-.8,2-2.4,2h-3v-1.2h2.4c1.2,0,1.9-.2,1.9-1.1s-.7-1.1-1.9-1.1h-2.3v-1.2h5.3v1.2h-.6Z"/>
          <path class="st64" d="M273.4,67.4c0-.9-.7-1.5-1.6-1.5s-1.5.7-1.5,1.6.7,1.4,1.5,1.4,1.6-.7,1.6-1.5M276.2,69v1.2h-7v-1.2h.4c-.4-.5-.6-1-.6-1.6s.2-1.3.6-1.7c.5-.6,1.3-1,2.2-1s1.5.3,2,.9c.5.5.7,1.1.7,1.8s-.2,1.2-.6,1.6h2.1Z"/>
          <path class="st67" d="M260.1,99.9h1.9c1.1-1.8,3.2-3,5.4-3,3.6,0,6.4,2.9,6.4,6.4s-2.9,6.4-6.4,6.4-4.3-1.2-5.4-3h-1.9c1.3,2.8,4.1,4.7,7.4,4.7s8.1-3.6,8.1-8.1-3.6-8.1-8.1-8.1-6.1,1.9-7.4,4.7"/>
          <path class="st67" d="M262.4,101.1h-5.9c-.1,0-.2.1-.1.2.3.7,1,1.2,1.7,1.3h3.7c.5,0,.7-.2.8-.6l4.8.4c.4,0,.7-.3.7-.7s-.3-.7-.7-.7l-4.9.2Z"/>
          <path class="st67" d="M261.2,103.8c-.2-.4-.6-.6-1.1-.6l-3,.2c-.1,0-.2.1-.2.2h0c0,.1.1.2.2.2h2.4c.1,0,.2,0,.2.1,0,.1-.1.2-.2.2h-2.5c-.1,0-.2.2-.2.3h0c0,.1,0,.2.2.2h2.5c.1,0,.2.2.2.3,0,.1-.1.2-.2.2h-2.4c-.1,0-.2,0-.2,0,0,.1,0,.2.2.3l3,.2c.5,0,.9-.3,1.1-.6.1-.2.3-.3.5-.3,0,0,5.7.3,5.7.3.4,0,.7-.3.7-.7s-.3-.7-.7-.7-5.7.3-5.7.3c-.2,0-.4,0-.5-.3"/>
        </g>
      </g>
    </g>
  </g>
</svg>